<svg width="200" height="200" viewBox="0 0 200 200" fill="none" xmlns="http://www.w3.org/2000/svg">
<path d="M0 50C0 22.3858 22.3858 0 50 0H150C177.614 0 200 22.3858 200 50V150C200 177.614 177.614 200 150 200H50C22.3858 200 0 177.614 0 150V50Z" fill="url(#paint0_linear_1456_151)"/>
<path d="M31.5468 60.8696V85.1489L99.9989 95.1324L168.451 78.1567V60.8696V130.542L129.241 140.607L99.9989 139.092L67.0946 140.607L31.5468 131.929V60.8696Z" fill="url(#paint1_linear_1456_151)"/>
<path d="M168.453 65.9011V62.1336L168.449 61.7808C168.043 44.3371 137.553 34.3056 100 34.3056C62.4456 34.3056 31.9502 44.1951 31.5478 61.7808V65.9011H31.5816C31.5592 66.1909 31.5478 66.4833 31.5478 66.7781C31.5478 80.0251 55.9028 88.1209 100 88.1209C144.098 88.1209 168.453 80.0251 168.453 66.7781C168.453 66.4833 168.441 66.191 168.419 65.9011H168.453Z" fill="url(#paint2_linear_1456_151)"/>
<path d="M31.5479 66.747V93.4717C31.5463 93.5345 31.5468 93.5973 31.5473 93.6602L31.5479 93.755C31.5479 106.986 55.9028 117.712 100 117.712C144.098 117.712 168.453 106.986 168.453 93.755C168.453 93.6603 168.452 93.5659 168.449 93.4717L168.453 66.747C164.875 78.8087 140.548 88.1209 100 88.1209C59.453 88.1209 35.1261 78.8087 31.5479 66.747Z" fill="#F2F3FF"/>
<path d="M31.5478 106.838V133.702H31.58C32.5797 148.624 56.8291 160.565 100 160.565C143.172 160.565 167.421 148.624 168.421 133.702H168.453V106.838C168.453 121.228 144.098 132.893 100 132.893C55.9028 132.893 31.5478 121.228 31.5478 106.838Z" fill="#F2F3FF"/>
<path d="M31.5479 66.747V93.4717C31.5463 93.5345 31.5468 93.5973 31.5473 93.6602L31.5479 93.755C31.5479 106.986 55.9028 117.712 100 117.712C144.098 117.712 168.453 106.986 168.453 93.755C168.453 93.6603 168.452 93.5659 168.449 93.4717L168.453 66.747C164.875 78.8087 140.548 88.1209 100 88.1209C59.453 88.1209 35.1261 78.8087 31.5479 66.747Z" fill="#F2F3FF"/>
<path d="M31.5478 106.838V133.702H31.58C32.5797 148.624 56.8291 160.565 100 160.565C143.172 160.565 167.421 148.624 168.421 133.702H168.453V106.838C168.453 121.228 144.098 132.893 100 132.893C55.9028 132.893 31.5478 121.228 31.5478 106.838Z" fill="#F2F3FF"/>
<path d="M168.453 133.702H168.421C167.421 148.625 143.172 160.566 100.001 160.566C56.8294 160.566 32.5795 148.625 31.5799 133.702H31.5476V106.839C31.5478 121.229 55.9033 132.894 100.001 132.894C144.098 132.894 168.453 121.229 168.453 106.839V133.702ZM168.45 93.4729C168.452 93.5669 168.453 93.6616 168.453 93.7561C168.453 106.987 144.098 117.713 100.001 117.713C55.9035 117.713 31.548 106.987 31.5476 93.7561V66.7473C35.1259 78.8091 59.4533 88.1213 100.001 88.1213C140.548 88.1213 164.875 78.809 168.453 66.7473L168.45 93.4729Z" fill="url(#paint3_linear_1456_151)"/>
<rect width="11.5671" height="11.5671" rx="5.78353" transform="matrix(0.939693 0.34202 0 1 41 87)" fill="url(#paint4_linear_1456_151)"/>
<rect width="11.5671" height="11.5671" rx="5.78353" transform="matrix(0.939693 0.34202 0 1 41.2776 129.562)" fill="url(#paint5_linear_1456_151)"/>
<g filter="url(#filter0_d_1456_151)">
<rect x="113" y="130" width="66" height="45" rx="4" fill="#D6EAF0" shape-rendering="crispEdges"/>
<rect x="116" y="133" width="18" height="11" rx="2" fill="url(#paint6_linear_1456_151)"/>
<rect x="137" y="133" width="18" height="11" rx="2" fill="url(#paint7_linear_1456_151)"/>
<rect x="158" y="133" width="18" height="11" rx="2" fill="url(#paint8_linear_1456_151)"/>
<rect x="116" y="147" width="18" height="11" rx="2" fill="url(#paint9_linear_1456_151)"/>
<rect x="137" y="147" width="18" height="11" rx="2" fill="#F2F3FF"/>
<rect x="158" y="147" width="18" height="11" rx="2" fill="#F2F3FF"/>
<rect x="116" y="161" width="18" height="11" rx="2" fill="#F2F3FF"/>
<rect x="137" y="161" width="18" height="11" rx="2" fill="#F2F3FF"/>
<rect x="158" y="161" width="18" height="11" rx="2" fill="#F2F3FF"/>
</g>
<defs>
<filter id="filter0_d_1456_151" x="108" y="127" width="74" height="53" filterUnits="userSpaceOnUse" color-interpolation-filters="sRGB">
<feFlood flood-opacity="0" result="BackgroundImageFix"/>
<feColorMatrix in="SourceAlpha" type="matrix" values="0 0 0 0 0 0 0 0 0 0 0 0 0 0 0 0 0 0 127 0" result="hardAlpha"/>
<feOffset dx="-1" dy="1"/>
<feGaussianBlur stdDeviation="2"/>
<feComposite in2="hardAlpha" operator="out"/>
<feColorMatrix type="matrix" values="0 0 0 0 0.252224 0 0 0 0 0.350182 0 0 0 0 0.441819 0 0 0 0.78 0"/>
<feBlend mode="normal" in2="BackgroundImageFix" result="effect1_dropShadow_1456_151"/>
<feBlend mode="normal" in="SourceGraphic" in2="effect1_dropShadow_1456_151" result="shape"/>
</filter>
<linearGradient id="paint0_linear_1456_151" x1="200" y1="0" x2="0" y2="200" gradientUnits="userSpaceOnUse">
<stop stop-color="#70A0CC"/>
<stop offset="1" stop-color="#25B8BB"/>
</linearGradient>
<linearGradient id="paint1_linear_1456_151" x1="99.9989" y1="60.8696" x2="99.9989" y2="140.607" gradientUnits="userSpaceOnUse">
<stop stop-color="#82B9DE"/>
<stop offset="1" stop-color="#82D2DE" stop-opacity="0.5"/>
</linearGradient>
<linearGradient id="paint2_linear_1456_151" x1="99.9999" y1="34.3056" x2="99.9999" y2="160.565" gradientUnits="userSpaceOnUse">
<stop stop-color="#BCCBE7"/>
<stop offset="1" stop-color="#5FC6E0"/>
</linearGradient>
<linearGradient id="paint3_linear_1456_151" x1="168.453" y1="108.846" x2="31.8535" y2="118.148" gradientUnits="userSpaceOnUse">
<stop stop-color="#D6EAF0"/>
<stop offset="1" stop-color="#D6EAF0" stop-opacity="0"/>
</linearGradient>
<linearGradient id="paint4_linear_1456_151" x1="5.78353" y1="0" x2="5.78353" y2="11.5671" gradientUnits="userSpaceOnUse">
<stop stop-color="#405971"/>
<stop offset="1" stop-color="#65BBC1"/>
</linearGradient>
<linearGradient id="paint5_linear_1456_151" x1="5.78353" y1="0" x2="5.78353" y2="11.5671" gradientUnits="userSpaceOnUse">
<stop stop-color="#405971"/>
<stop offset="1" stop-color="#65BBC1"/>
</linearGradient>
<linearGradient id="paint6_linear_1456_151" x1="134" y1="133" x2="124.211" y2="149.018" gradientUnits="userSpaceOnUse">
<stop stop-color="#70A0CC"/>
<stop offset="1" stop-color="#25B8BB"/>
</linearGradient>
<linearGradient id="paint7_linear_1456_151" x1="155" y1="133" x2="145.211" y2="149.018" gradientUnits="userSpaceOnUse">
<stop stop-color="#70A0CC"/>
<stop offset="1" stop-color="#25B8BB"/>
</linearGradient>
<linearGradient id="paint8_linear_1456_151" x1="176" y1="133" x2="166.211" y2="149.018" gradientUnits="userSpaceOnUse">
<stop stop-color="#70A0CC"/>
<stop offset="1" stop-color="#25B8BB"/>
</linearGradient>
<linearGradient id="paint9_linear_1456_151" x1="134" y1="147" x2="124.211" y2="163.018" gradientUnits="userSpaceOnUse">
<stop stop-color="#70A0CC"/>
<stop offset="1" stop-color="#25B8BB"/>
</linearGradient>
</defs>
</svg>
